<?xml version="1.0" encoding="utf-8"?>
<!-- Generator: Adobe Illustrator 26.0.3, SVG Export Plug-In . SVG Version: 6.00 Build 0)  -->
<svg version="1.1" id="Layer_1" xmlns="http://www.w3.org/2000/svg" xmlns:xlink="http://www.w3.org/1999/xlink" x="0px" y="0px"
	 viewBox="0 0 316.5 217.1" style="enable-background:new 0 0 316.5 217.1;" xml:space="preserve">
<style type="text/css">
	.st0{opacity:0.1;fill:#020203;enable-background:new    ;}
	.st1{clip-path:url(#SVGID_00000042736281101695049790000003674220925129686693_);fill:#E84524;}
	.st2{clip-path:url(#SVGID_00000161605726840254551990000014579698155908596374_);fill:#3273B9;}
	.st3{clip-path:url(#SVGID_00000144339478408535668290000013037324856693100953_);}
	.st4{clip-path:url(#SVGID_00000043422530768047500450000008065744316145120701_);}
	.st5{fill:#FFFFFF;}
	.st6{clip-path:url(#SVGID_00000080200653526389851910000004824411006309538486_);}
	.st7{clip-path:url(#SVGID_00000077309070421924793330000011781991024434151808_);}
	.st8{fill:#3A3C3D;}
	.st9{fill:#FDC30B;}
	.st10{clip-path:url(#SVGID_00000170973658341531835650000007219637082759542952_);}
	.st11{fill:#34A936;}
</style>
<path id="SHADOW" class="st0" d="M305.8,113.7c0,22.1-1.6,41.8-3.4,57.2c-2.4,20.3-18.6,36.1-39,38c-23.6,2.2-59.2,4.6-105.2,4.6
	s-81.5-2.3-105.2-4.6c-20.3-1.9-36.6-17.7-39-38c-1.8-15.4-3.4-35.1-3.4-57.2s1.6-41.8,3.4-57.2c2.4-20.3,18.6-36.1,39-38
	c23.6-2.2,59.2-4.6,105.2-4.6s81.5,2.3,105.2,4.6c20.3,1.9,36.6,17.7,39,38C304.2,72,305.8,91.7,305.8,113.7z"/>
<g>
	<g>
		<g>
			<g>
				<g>
					<defs>
						<path id="SVGID_1_" d="M302,107.6c0,21.6-1.5,40.9-3.2,56c-2.3,19.8-18.2,35.4-37.9,37.2c-23,2.2-57.7,4.5-102.5,4.5
							s-79.5-2.4-102.6-4.6c-19.8-1.9-35.7-17.4-37.9-37.2c-1.8-15.1-3.2-34.4-3.2-56s1.5-40.9,3.2-56C20.1,31.8,36,16.4,55.8,14.4
							c23.1-2.2,57.8-4.4,102.5-4.4s79.5,2.3,102.5,4.5c19.8,1.9,35.7,17.4,37.9,37.2C300.5,66.8,302,86,302,107.6z"/>
					</defs>
					<clipPath id="SVGID_00000155857589875935450840000014206693702210968248_">
						<use xlink:href="#SVGID_1_"  style="overflow:visible;"/>
					</clipPath>
					<path style="clip-path:url(#SVGID_00000155857589875935450840000014206693702210968248_);fill:#E84524;" d="M14.6,14.3H303
						v96.3H158.7L14.6,14.3z"/>
				</g>
				<g>
					<defs>
						<path id="SVGID_00000111892854503179467870000006291293784080758664_" d="M302,107.6c0,21.6-1.5,40.9-3.2,56
							c-2.3,19.8-18.2,35.4-37.9,37.2c-23,2.2-57.7,4.5-102.5,4.5s-79.5-2.4-102.6-4.6c-19.8-1.9-35.7-17.4-37.9-37.2
							c-1.8-15.1-3.2-34.4-3.2-56s1.5-40.9,3.2-56C20.1,31.8,36,16.4,55.8,14.4c23.1-2.2,57.8-4.4,102.5-4.4s79.5,2.3,102.5,4.5
							c19.8,1.9,35.7,17.4,37.9,37.2C300.5,66.8,302,86,302,107.6z"/>
					</defs>
					<clipPath id="SVGID_00000010307547035709041430000018274186964159966862_">
						<use xlink:href="#SVGID_00000111892854503179467870000006291293784080758664_"  style="overflow:visible;"/>
					</clipPath>
					<path style="clip-path:url(#SVGID_00000010307547035709041430000018274186964159966862_);fill:#3273B9;" d="M14.6,206.9H303
						v-96.3H158.7L14.6,206.9z"/>
				</g>
				<g>
					<defs>
						<path id="SVGID_00000067219123758978360610000013994255130770623931_" d="M302,107.6c0,21.6-1.5,40.9-3.2,56
							c-2.3,19.8-18.2,35.4-37.9,37.2c-23,2.2-57.7,4.5-102.5,4.5s-79.5-2.4-102.6-4.6c-19.8-1.9-35.7-17.4-37.9-37.2
							c-1.8-15.1-3.2-34.4-3.2-56s1.5-40.9,3.2-56C20.1,31.8,36,16.4,55.8,14.4c23.1-2.2,57.8-4.4,102.5-4.4s79.5,2.3,102.5,4.5
							c19.8,1.9,35.7,17.4,37.9,37.2C300.5,66.8,302,86,302,107.6z"/>
					</defs>
					<clipPath id="SVGID_00000024691183925845667570000007672946289942012816_">
						<use xlink:href="#SVGID_00000067219123758978360610000013994255130770623931_"  style="overflow:visible;"/>
					</clipPath>
					<g style="clip-path:url(#SVGID_00000024691183925845667570000007672946289942012816_);">
						<g>
							<defs>
								<rect id="SVGID_00000108283075178996586320000011492700633803715514_" x="14.6" y="14.3" width="288.4" height="192.6"/>
							</defs>
							<clipPath id="SVGID_00000018221831922854113700000001168562186680495750_">
								<use xlink:href="#SVGID_00000108283075178996586320000011492700633803715514_"  style="overflow:visible;"/>
							</clipPath>
							<g style="clip-path:url(#SVGID_00000018221831922854113700000001168562186680495750_);">
								<path class="st5" d="M-17.5,266.8V-45.7L168.4,78.5h134.5v64.2H168.4L-17.5,266.8z M46.6,74.3v72.6l54.4-36.3L46.6,74.3z"/>
							</g>
						</g>
						<g>
							<defs>
								<rect id="SVGID_00000100383640532965086510000006235469289391808137_" x="14.6" y="14.3" width="288.4" height="192.6"/>
							</defs>
							<clipPath id="SVGID_00000133500914556964514840000015366523185576571782_">
								<use xlink:href="#SVGID_00000100383640532965086510000006235469289391808137_"  style="overflow:visible;"/>
							</clipPath>
							<g style="clip-path:url(#SVGID_00000133500914556964514840000015366523185576571782_);">
								<g>
									<defs>
										<polygon id="SVGID_00000053542047423747034300000013262724751215800193_" points="14.6,14.3 158.7,110.6 14.6,206.9 
																					"/>
									</defs>
									<clipPath id="SVGID_00000047020309817320840100000010977330681440393407_">
										<use xlink:href="#SVGID_00000053542047423747034300000013262724751215800193_"  style="overflow:visible;"/>
									</clipPath>
									<g style="clip-path:url(#SVGID_00000047020309817320840100000010977330681440393407_);">
										<path class="st8" d="M14.6,14.3l144.2,96.3L14.6,206.9"/>
										<polygon class="st9" points="32.3,233.6 -3.2,180.2 101,110.6 -3.2,41 32.3,-12.4 216.5,110.6 										"/>
									</g>
								</g>
							</g>
						</g>
						<g>
							<defs>
								<rect id="SVGID_00000018235130260524323750000003346736372424149679_" x="14.6" y="14.3" width="288.4" height="192.6"/>
							</defs>
							<clipPath id="SVGID_00000117656020358822082780000008363385080986417307_">
								<use xlink:href="#SVGID_00000018235130260524323750000003346736372424149679_"  style="overflow:visible;"/>
							</clipPath>
							<g style="clip-path:url(#SVGID_00000117656020358822082780000008363385080986417307_);">
								<polygon class="st11" points="22.1,178.7 124.1,110.6 17.3,39.3 41.7,9.3 164.6,91.3 302.9,91.3 302.9,129.8 164.6,129.8 
									56.6,202 34.5,195.4 								"/>
							</g>
						</g>
					</g>
				</g>
			</g>
			<g id="FRAME">
				<path class="st5" d="M158.3,208.6c-46.6,0-82.4-2.5-104.1-4.5c-10.7-1-20.9-5.7-28.6-13.2s-12.7-17.6-13.9-28.3
					c-2.2-19-3.3-38.2-3.3-56.9c0-18.8,1.1-37.9,3.3-56.9C12.9,38,17.8,28,25.5,20.4c7.7-7.5,17.9-12.2,28.6-13.2
					c21.8-2.1,57.5-4.5,104.1-4.5s82.4,2.5,104.1,4.5c10.7,1,20.9,5.7,28.6,13.2s12.7,17.6,13.9,28.3c2.2,19,3.3,38.2,3.3,56.9
					s-1.1,37.9-3.3,56.9c-1.2,10.7-6.2,20.7-13.9,28.3c-7.7,7.5-17.9,12.2-28.6,13.2C240.6,206.1,204.9,208.6,158.3,208.6z
					 M158.3,11.8c-46.3,0-81.7,2.4-103.3,4.5c-8.7,0.8-16.9,4.6-23.1,10.7c-6.2,6-10.2,14.1-11.2,22.8c-2.2,18.7-3.3,37.4-3.3,55.9
					s1.1,37.2,3.3,55.9c1,8.6,5,16.7,11.2,22.8s14.4,9.9,23.1,10.7c21.6,2,57,4.5,103.3,4.5s81.7-2.4,103.3-4.5
					c8.7-0.8,16.9-4.6,23.1-10.7c6.2-6.1,10.2-14.2,11.2-22.8c2.2-18.7,3.3-37.4,3.3-55.9c0-18.4-1.1-37.2-3.3-55.9
					c-1-8.6-5-16.7-11.2-22.8s-14.4-9.9-23.1-10.7C240,14.2,204.6,11.8,158.3,11.8z"/>
			</g>
		</g>
	</g>
	<g id="FRAME_00000072256864488162761780000008560647973618459808_">
		<path class="st5" d="M158.3,208.6c-46.6,0-82.4-2.5-104.1-4.5c-10.7-1-20.9-5.7-28.6-13.2s-12.7-17.6-13.9-28.3
			c-2.2-19-3.3-38.2-3.3-56.9c0-18.8,1.1-37.9,3.3-56.9C12.9,38,17.8,28,25.5,20.4c7.7-7.5,17.9-12.2,28.6-13.2
			c21.8-2.1,57.5-4.5,104.1-4.5s82.4,2.5,104.1,4.5c10.7,1,20.9,5.7,28.6,13.2s12.7,17.6,13.9,28.3c2.2,19,3.3,38.2,3.3,56.9
			s-1.1,37.9-3.3,56.9c-1.2,10.7-6.2,20.7-13.9,28.3c-7.7,7.5-17.9,12.2-28.6,13.2C240.6,206.1,204.9,208.6,158.3,208.6z
			 M158.3,11.8c-46.3,0-81.7,2.4-103.3,4.5c-8.7,0.8-16.9,4.6-23.1,10.7c-6.2,6-10.2,14.1-11.2,22.8c-2.2,18.7-3.3,37.4-3.3,55.9
			s1.1,37.2,3.3,55.9c1,8.6,5,16.7,11.2,22.8s14.4,9.9,23.1,10.7c21.6,2,57,4.5,103.3,4.5s81.7-2.4,103.3-4.5
			c8.7-0.8,16.9-4.6,23.1-10.7c6.2-6.1,10.2-14.2,11.2-22.8c2.2-18.7,3.3-37.4,3.3-55.9c0-18.4-1.1-37.2-3.3-55.9
			c-1-8.6-5-16.7-11.2-22.8s-14.4-9.9-23.1-10.7C240,14.2,204.6,11.8,158.3,11.8z"/>
	</g>
</g>
</svg>
