<?xml version="1.0" encoding="UTF-8"?> <!-- Generator: Adobe Illustrator 26.0.3, SVG Export Plug-In . SVG Version: 6.00 Build 0) --> <svg xmlns="http://www.w3.org/2000/svg" xmlns:xlink="http://www.w3.org/1999/xlink" version="1.1" id="Layer_1" x="0px" y="0px" viewBox="0 0 408.6 105" style="enable-background:new 0 0 408.6 105;" xml:space="preserve"> <style type="text/css"> .st0{fill:#B2B2B2;} .st1{fill:#FFFFFF;} .st2{fill:#E65216;} .st3{fill:#EE7620;} .st4{fill:#F08031;} .st5{fill:#F2952E;} .st6{fill:#D3D2D2;} .st7{fill:#E3E3E2;} .st8{fill:#EA5722;} .st9{fill:#EAEAEA;} .st10{fill:#B8B6B6;} .st11{fill:#D04516;} .st12{fill:#2A292A;} .st13{fill:#BEBDBD;} .st14{fill:#AAA4A4;} .st15{fill:#909090;} .st16{fill:#545050;} .st17{fill:#4A4748;} .st18{fill:#E84710;} .st19{fill:#534F4F;} .st20{enable-background:new ;} .st21{clip-path:url(#SVGID_00000180351068388958289880000002193100840436462473_);} .st22{fill:#6DB52D;} .st23{fill:#81BB2B;} </style> <g> <path class="st0" d="M403.1,75.3c-0.5-1.4-1.3-2.7-2.3-3.8c0,0,0,0,0,0c-1.1-1.2-2.7-2.3-4.5-3.2c-1.7-0.8-3.9-1.6-6.3-2.3 c-1.7-0.5-3.1-0.9-4.1-1.3c-1-0.4-1.6-0.7-2-0.8c-0.2-0.1-0.3-0.3-0.4-0.4c-0.1-0.2-0.1-0.3-0.1-0.5c0-0.2,0-0.4,0.1-0.5 c0.1-0.1,0.2-0.2,0.3-0.3c0.2-0.1,0.5-0.3,0.8-0.3c0.5-0.1,1.1-0.2,1.7-0.2l0,0c0.7,0,1.5,0.2,2.4,0.5c1,0.3,2,0.8,2.9,1.4 c1,0.6,1.8,1.3,2.6,2c0.4,0.4,0.9,0.6,1.5,0.6c0,0,0.1,0,0.1,0c0.6,0,1.1-0.3,1.5-0.7l5.6-6.1c0.8-0.9,0.8-2.2-0.1-3 c-1.4-1.4-3-2.6-4.8-3.6c-1.8-1-3.7-1.8-5.8-2.3c-2.1-0.5-4.2-0.8-6.4-0.8l-0.1,0c-2.2,0-4.3,0.3-6.3,0.9c-2,0.6-3.9,1.5-5.4,2.7 c-1.6,1.2-3,2.7-3.9,4.4c-1,1.7-1.4,3.7-1.5,5.8c0,1.7,0.3,3.3,0.8,4.8c0.5,1.4,1.3,2.8,2.4,4c0,0,0.1,0.1,0.1,0.1 c1.2,1.3,2.8,2.4,4.7,3.4c1.8,0.9,4.1,1.7,6.7,2.4c1.5,0.4,2.8,0.8,3.8,1.2c1.1,0.4,1.6,0.6,1.8,0.8c0.2,0.1,0.3,0.3,0.3,0.6 c0,0.2,0,0.4-0.1,0.6c-0.1,0.1-0.2,0.2-0.3,0.3c-0.2,0.2-0.5,0.3-0.9,0.4c-0.4,0.1-0.9,0.2-1.4,0.2h0c-1.6,0-3.2-0.3-4.8-0.9 c-1.5-0.6-2.9-1.6-4.1-2.9c-0.4-0.5-1-0.7-1.6-0.7c-0.5,0-1,0.2-1.4,0.5l-6.5,5.5c-0.9,0.8-1,2.1-0.3,3c1.9,2.4,4.5,4.2,7.6,5.6 c3.1,1.3,6.6,2,10.5,2l0.1,0c3.2,0,6.1-0.6,8.7-1.8c2.7-1.2,4.8-2.9,6.4-5.1c1.6-2.2,2.4-4.8,2.4-7.6 C403.8,78.2,403.5,76.7,403.1,75.3z"></path> <path class="st0" d="M363.3,35l-10.4,0c0,0,0,0,0,0c0,0,0,0,0,0c-0.1,0-0.3,0-0.4,0c-0.1,0-0.2,0.1-0.3,0.1c0,0-0.1,0-0.1,0 c-0.1,0-0.2,0.1-0.3,0.1c0,0-0.1,0-0.1,0.1c-0.1,0.1-0.2,0.2-0.3,0.2c0,0,0,0,0,0c0,0,0,0,0,0c-0.1,0.1-0.2,0.2-0.3,0.3 c0,0,0,0.1,0,0.1c-0.1,0.1-0.1,0.2-0.2,0.3c0,0,0,0.1,0,0.1c0,0.1-0.1,0.2-0.1,0.3c0,0.1,0,0.3,0,0.4c0,0,0,0,0,0l0,14.4 c-0.9-0.5-1.9-0.9-2.9-1.3c-2.4-0.9-4.9-1.3-7.5-1.3l-0.1,0c0,0,0,0,0,0c-3,0-6,0.6-8.8,1.8c-2.7,1.1-5.1,2.8-7.2,4.8 c-2.1,2.1-3.7,4.5-4.8,7.1c-1.2,2.8-1.8,5.7-1.8,8.8v0v0c0,3,0.6,6,1.7,8.8c1.1,2.7,2.7,5.1,4.8,7.2c2.1,2.1,4.4,3.7,7.1,4.9 c2.8,1.2,5.7,1.8,8.7,1.8l0,0c0,0,0,0,0.1,0c0.1,0,0.1,0,0.2,0c0.2,0,0.4,0,0.7,0l0.1,0c2,0,3.9-0.3,5.7-0.9 c1.5-0.5,2.9-1.1,4.1-1.9c0.1,0,0.1-0.1,0.2-0.1l0,0.1c0.1,1.2,1,2.1,2.2,2.1l9.9,0c0,0,0,0,0,0c0.1,0,0.3,0,0.4,0 c0.1,0,0.2,0,0.2-0.1c0.1,0,0.1,0,0.2-0.1c0.1,0,0.2-0.1,0.2-0.1c0,0,0.1,0,0.1-0.1c0.1-0.1,0.2-0.1,0.3-0.2c0,0,0,0,0.1,0 c0,0,0,0,0,0c0.1-0.1,0.2-0.2,0.3-0.3c0,0,0-0.1,0.1-0.1c0.1-0.1,0.1-0.2,0.2-0.3c0,0,0-0.1,0-0.1c0-0.1,0.1-0.2,0.1-0.3 c0-0.1,0-0.3,0-0.4l0.2-54.1l0,0v0C365.5,36,364.5,35,363.3,35z"></path> <path class="st0" d="M317.5,47.1c0.4-0.9,0.6-2,0.6-3.1c0-1.2-0.2-2.2-0.6-3.2c-0.4-1-1-1.9-1.8-2.6c-1.5-1.4-3.6-2.1-6.1-2.1l0,0 c-2.5,0-4.5,0.7-6.1,2.1c-0.5,0.4-0.9,0.9-1.2,1.4c0-0.2-0.1-0.4-0.1-0.6c-0.3-0.8-1.1-1.4-2-1.4l-13.3,0c0,0,0,0,0,0 c-0.6,0-1.1,0.2-1.5,0.6l-17.1,17.2l0-15.7c0-0.6-0.2-1.1-0.6-1.5c-0.4-0.4-1-0.6-1.5-0.6l-11,0c0,0,0,0,0,0c-1.2,0-2.2,1-2.2,2.2 l-0.1,28.1l-2.9,0l0.1-28.4c0-0.6-0.2-1.1-0.6-1.5c-0.4-0.4-1-0.6-1.5-0.6l-1.3,0c-0.1-0.1-0.3-0.1-0.4-0.2l-1.8-0.4l1.7-3.8 c0.8-1.8-0.5-3.8-2.5-3.8l-31.5,0.3c0.6-1.9,1-3.8,1-5.8c0-10.3-8.2-18.7-18.5-18.7c-3.3,0-6.5,0.9-9.3,2.5l-7.7-2.7 c-0.3-0.2-0.7-0.3-1.1-0.3c-0.4,0-0.8,0-1.2,0.2l-9.5,4.1c-2-1.6-4.4-2.6-6.9-2.6c-3.7,0-7.1,1.9-9.5,5.1 c-2.1,2.9-3.2,6.6-3.2,10.5c0,2,0.3,4,0.9,5.8c0,0,0,0.1,0,0.1l-20.8,0.1c-2.2,0-3.4,2.5-2.1,4.3l2.4,3.2l-0.5,0.2l-16.9-0.1 l-2.2,0l0,1c-0.4-0.6-1.1-1-1.8-1l-43.4-0.1c0,0,0,0,0,0c-0.6,0-1.1,0.2-1.5,0.6c-0.4,0.4-0.6,1-0.6,1.5l0,8.5 c-0.9-1.7-2-3.2-3.3-4.6c-1.9-1.9-4.1-3.5-6.7-4.5c-2.5-1.1-5.3-1.6-8.4-1.6l-0.1,0h0c-3,0-5.7,0.5-8.3,1.6c-2.5,1-4.8,2.5-6.7,4.4 c-1.9,1.9-3.4,4.2-4.4,6.8c-1,2.6-1.5,5.4-1.6,8.5c0,3,0.5,5.9,1.5,8.4c1,2.6,2.5,4.9,4.4,6.8c1.9,1.9,4.2,3.4,6.7,4.5 c2.5,1.1,5.4,1.6,8.4,1.6l0.1,0c3,0,5.7-0.5,8.3-1.6c2.5-1.1,4.8-2.6,6.7-4.5c1.9-1.9,3.4-4.2,4.4-6.8c1-2.6,1.5-5.4,1.6-8.4 c0-2.3-0.3-4.6-0.9-6.6c0.2,0,0.3,0.1,0.5,0.1l13.5,0l-0.1,41.3c0,0.6,0.2,1.1,0.6,1.5c0.4,0.4,1,0.6,1.5,0.6l11.6,0c0,0,0,0,0,0 c1.2,0,2.2-1,2.2-2.2L90.9,50l14,0c0,0,0,0,0,0c0.6,0,1.1-0.2,1.5-0.6c0.1-0.1,0.2-0.2,0.3-0.4l-0.1,42.3l0,2.2l2.2,0l37,0.1l2.2,0 l0-2.2l0-10.2l0-2.2l-2.2,0l-23.5-0.1l0-8l19.2,0.1l2.2,0l0-2.2l0-7.3l5.8,6.5c0.6,0.6,1.4,1,2.3,0.9l7.3-0.9l6,11.8 c0.1,0.3,0.3,0.5,0.5,0.7l12.6,19.6c1.2,1.8,3.9,1.6,4.7-0.5l1.2-3.1l3.4,3.9c1.4,1.6,4,1,4.6-1l0.4-1.2c0.5,0.4,1.1,0.6,1.7,0.6 l15.4,0c0.4,0.1,0.8,0,1.2-0.1c0,0,0,0,0,0c0,0,0,0,0,0c0.1,0,0.2-0.1,0.3-0.1c0.1,0,0.2-0.1,0.3-0.2c0,0,0,0,0,0 c0.3-0.2,0.5-0.4,0.7-0.6c0,0,0,0,0,0c0,0,0,0,0-0.1c0.5-0.7,0.7-1.5,0.4-2.4c0-0.1,0-0.1-0.1-0.2c0,0,0-0.1-0.1-0.1 c-0.1-0.1-0.1-0.3-0.2-0.4c0,0,0,0,0,0l-0.1-0.1l-13-17.7l2.2-6.5l10.4,1.8l4.1,7.8c0.4,0.7,1.1,1.2,1.9,1.2l17.3,0.1l0,9.4 c0,1.2,1,2.2,2.2,2.2l10.6,0c0,0,0,0,0,0c0.6,0,1.1-0.2,1.5-0.6c0.4-0.4,0.6-1,0.6-1.5l0-9.4l2.9,0l0,9.4c0,1.2,1,2.2,2.2,2.2l11,0 c0,0,0,0,0,0c0.6,0,1.1-0.2,1.5-0.6c0.4-0.4,0.6-1,0.6-1.5l0.1-16.8l2.6-2.6l15.6,20.8c0.4,0.5,1.1,0.9,1.7,0.9l13,0c0,0,0,0,0,0 c0.6,0,1.2-0.3,1.6-0.7c0.4,0.5,1,0.7,1.6,0.7l10.4,0c0,0,0,0,0,0c0.6,0,1.1-0.2,1.5-0.6c0.4-0.4,0.6-1,0.6-1.5l0.1-38.6 c0-0.6-0.2-1.1-0.6-1.5c-0.4-0.4-0.8-0.6-1.4-0.6c0.2-0.2,0.5-0.4,0.7-0.6C316.5,49,317.1,48.1,317.5,47.1z M234.9,62.2l0,5.7 l-4.6,0L234.9,62.2z M122.4,49.9l10.9,0l6.2,7l-17.2-0.1L122.4,49.9z M281.1,61.4l20.2-19.7c-0.2,0.7-0.3,1.4-0.3,2.2 c0,1.2,0.2,2.3,0.6,3.2c0.4,1,1,1.9,1.8,2.6c0.2,0.2,0.4,0.3,0.6,0.5c-1,0.2-1.7,1.1-1.7,2.1l-0.1,36.5L281.1,61.4z"></path> <polygon class="st0" points="19.7,78.4 19.8,37.2 19.8,35.1 17.7,35.1 6.1,35 3.9,35 3.9,37.2 3.8,91.1 3.8,93.3 5.9,93.3 10.7,93.3 41.9,93.4 58.4,93.5 60.6,93.5 60.6,91.3 60.7,80.7 60.7,78.5 58.5,78.5 "></polygon> </g> <g> <path class="st1" d="M175.9,2.7c-0.4,0-0.8,0-1.2,0.2L165.2,7c-2-1.6-4.4-2.6-6.9-2.6c-3.7,0-7.1,1.9-9.5,5.1 c-2.1,2.9-3.2,6.6-3.2,10.5c0,2,0.3,4,0.9,5.8c0,0,0,0.1,0,0.1L125.7,26c-2.2,0-3.4,2.5-2.1,4.3l2.4,3.2l-0.9,0.3 c-1.9,0.6-2.5,2.9-1.2,4.3l25.3,28.4c0.6,0.6,1.4,1,2.3,0.9l7.3-0.9l6,11.8c0.1,0.3,0.3,0.5,0.5,0.7l12.6,19.6 c1.2,1.8,3.9,1.6,4.7-0.5l1.2-3.1l3.4,3.9c1.4,1.6,4,1,4.6-1l0.4-1.2c0.5,0.4,1.1,0.6,1.7,0.6l15.4,0c0.4,0.1,0.8,0,1.2-0.1 c0,0,0,0,0,0c0,0,0,0,0,0c0.1,0,0.2-0.1,0.3-0.1c0.1,0,0.2-0.1,0.3-0.2c0,0,0,0,0,0c0.3-0.2,0.5-0.4,0.7-0.6c0,0,0,0,0,0 c0,0,0,0,0-0.1c0.5-0.7,0.7-1.5,0.4-2.4c0-0.1,0-0.1-0.1-0.2c0,0,0-0.1-0.1-0.1c-0.1-0.1-0.1-0.3-0.2-0.4c0,0,0,0,0,0l-0.1-0.1 l-13-17.7l2.2-6.5l15.3,2.6c1.7,0.3,3.2-1.1,3.1-2.7l27.8-28.9c1.4-1.5,0.7-4-1.3-4.4l-1.8-0.4l1.7-3.8c0.8-1.8-0.5-3.8-2.5-3.8 l-31.5,0.3c0.6-1.9,1-3.8,1-5.8c0-10.3-8.2-18.7-18.5-18.7c-3.3,0-6.5,0.9-9.3,2.5L177,3C176.7,2.8,176.3,2.7,175.9,2.7z"></path> <polygon class="st2" points="157.9,33.5 156.6,39.8 152.6,29.1 "></polygon> <polygon class="st3" points="153.2,30.6 165.3,63.4 151.3,65.1 "></polygon> <polygon class="st4" points="151.3,65.1 153.4,28.7 126.1,36.7 "></polygon> <polygon class="st5" points="153,29 130.6,35.4 125.9,29.1 "></polygon> <path class="st1" d="M188.3,53.4l-1.6,1.6l0,0L188.3,53.4C188.3,53.4,188.3,53.4,188.3,53.4z M167.7,51c0,0-0.1,0-0.1,0.1l0.7,2 l0.1-0.1L167.7,51z M200.9,31.8L200.9,31.8L200.9,31.8L200.9,31.8L200.9,31.8l0,0.1L200.9,31.8L200.9,31.8z M184.5,54.7l0,0.1 l2.2,0.2l0-0.1L184.5,54.7z"></path> <path class="st6" d="M180.2,28c5.6-7.4,17.3-14.6,17.3-14.6s4.7,9.5,3.4,18.4C198.9,31.4,186,29,180.2,28z"></path> <polygon class="st7" points="154.3,51.7 179.2,85.8 186.7,54.9 "></polygon> <path class="st8" d="M191.1,11.2c0,0-4.5,9.3-11,16.9c-5.7-2-10.7-2.8-10.7-2.8L176,5.8L191.1,11.2z"></path> <polygon class="st2" points="176,5.8 160.5,12.2 167,25.7 169.6,24.4 "></polygon> <polygon class="st9" points="180.3,28 185,40.4 201,31.8 "></polygon> <path class="st4" d="M207.8,34.2c0,0-1.5-0.5-6.9-2.4c1.3-6.6-3.4-18.4-3.4-18.4L207.8,34.2z"></path> <polygon class="st6" points="167.2,25.7 162.8,36.8 154.3,25.3 "></polygon> <path class="st10" d="M156.9,13.3l-2.6,12c0,0,8.7,0.2,12.9,0.4C160.8,15.5,156.9,13.3,156.9,13.3z"></path> <polygon class="st11" points="158.3,30.9 154.3,51.7 162.8,36.8 "></polygon> <polygon class="st8" points="186.7,54.9 211.2,30.8 195.9,76.3 "></polygon> <polygon class="st6" points="154.3,51.7 167.3,77.5 179.3,85.9 "></polygon> <polygon class="st2" points="195.8,76.2 209.8,95.2 194.2,81.4 "></polygon> <path class="st12" d="M184.8,28.8c0,0,2.3-6.2,7.5-5.2c6.5,1.2,4.4,7.4,4.4,7.4s-1.8,2.6-6.7,1.7C186.9,32.1,184.8,28.8,184.8,28.8 z"></path> <path class="st3" d="M167,25.7c-1.7-3.2-11.7-13.5-11.7-13.5l5.2,0C160.5,12.2,167.2,21.2,167,25.7z"></path> <path class="st12" d="M165.5,25.6c0,0-0.9-4.1-4.1-4.4c-5.2-0.5-4.5,4.2-4.5,4.2s1.6,3.1,4.2,2.8C163.5,27.9,165.5,25.6,165.5,25.6 z"></path> <polygon class="st13" points="167,25.7 162.8,36.9 170,33.9 "></polygon> <polygon class="st6" points="169.9,33.9 181.5,27.6 184.9,40.4 "></polygon> <polygon class="st3" points="211.2,30.8 199.2,66.3 216.7,69.3 "></polygon> <polygon class="st14" points="162.8,36.8 185,40.4 169.9,33.9 "></polygon> <polygon class="st9" points="162.8,36.8 154.3,51.7 168.3,53.1 "></polygon> <path class="st15" d="M180.4,28.2c0,0-9.7,3.3-12.7,4.5c-0.3-3.1,2.1-8.6,2.1-8.6L180.4,28.2z"></path> <path class="st16" d="M158.5,9.7c4.3,0,7.8,4.9,7.8,10.8c0,6-3.5,10.8-7.8,10.8c-4.3,0-7.8-4.9-7.8-10.8 C150.7,14.5,154.2,9.7,158.5,9.7z M158.5,7.5c-2.9,0-5.5,1.5-7.3,4.1c-1.7,2.4-2.7,5.6-2.7,8.9c0,1.7,0.3,3.4,0.7,5 c0.5,1.4,1.1,2.8,1.9,3.9c1.8,2.6,4.4,4.1,7.3,4.1c2.9,0,5.5-1.5,7.3-4c1.7-2.4,2.7-5.6,2.7-8.9c0-3.4-1-6.5-2.7-8.9 C164,9.1,161.4,7.5,158.5,7.5z"></path> <polygon class="st17" points="168.9,32.2 169.9,33.9 180.3,28.3 "></polygon> <polygon class="st4" points="216.5,68.3 211.2,30.9 244.9,38.7 "></polygon> <path class="st2" d="M179.6,28.6c7.3-9,19.8-16.3,19.8-16.3l-8.3-1.2C191.1,11.2,181.4,20.6,179.6,28.6z"></path> <polygon class="st18" points="185,40.4 186.7,54.8 200.9,31.9 "></polygon> <polygon class="st3" points="201,31.8 186.7,54.8 208,33.9 "></polygon> <path class="st16" d="M194.2,8.5c7.5,0,13.6,6.2,13.6,13.8c0,7.6-6.2,13.7-13.7,13.7c-7.5,0-13.6-6.2-13.6-13.8 S186.6,8.5,194.2,8.5z M194.2,6.3c-8.8,0-15.9,7.1-15.9,15.9c0,8.8,7.1,16,15.8,16c8.8,0,15.9-7.1,15.9-15.9 C210,13.5,203,6.4,194.2,6.3z"></path> <path class="st19" d="M167,25.7c0,0,0.1,4.3,0.6,7c0-4,2.1-8.6,2.1-8.6L167,25.7z"></path> <polygon class="st9" points="185,40.3 186.7,54.9 168.3,53.1 "></polygon> <polygon class="st7" points="162.8,36.8 185,40.4 168.3,53.1 "></polygon> <polygon class="st9" points="179.2,85.8 186.7,54.9 195.8,76.1 "></polygon> <polygon class="st6" points="194,95.1 209.8,95.2 191.2,78.8 "></polygon> <polygon class="st5" points="211.2,30.9 240.1,37.6 243.3,30.6 "></polygon> <polygon class="st8" points="179.2,85.8 189.3,97.6 195.8,76.1 "></polygon> <polygon class="st2" points="167.4,77.6 180.3,97.6 179.3,85.8 "></polygon> <polygon class="st11" points="180.3,97.5 183.1,90.3 179.2,85.8 "></polygon> <path class="st1" d="M193.6,24.8c1.3,0,2.4,1.1,2.4,2.4c0,1.3-2.8,2-3.4,1.4C192,27.9,192.3,24.8,193.6,24.8z"></path> <path class="st1" d="M162.5,22.1c1,0,1.8,0.8,1.8,1.7c0,1-1.9,1.3-2.3,0.9S161.5,22.1,162.5,22.1z"></path> <path class="st7" d="M187,26c0.2-0.6,0.8-1,1.4-0.9c0.6,0.2,0.6,1.6,0.2,1.8C188.3,27.2,186.8,26.7,187,26z"></path> <polygon class="st8" points="167,25.7 170.6,19 169.9,24.2 "></polygon> <polygon class="st3" points="169.8,24.1 176.7,26.8 170.6,19 "></polygon> <path class="st14" d="M184.9,28.8c0,0,3.2,3,6.2,3.6c3,0.6,5.7-1.4,5.7-1.4s-2.3,3.3-5.8,2.6C186.6,32.7,184.9,28.8,184.9,28.8z"></path> <path class="st14" d="M156.9,25.5c0,0,1.7,1.8,4.2,2.2c2.5,0.4,4.2-2.2,4.2-2.2s-0.6,3.4-4.2,3C157.5,28.2,156.9,25.5,156.9,25.5z"></path> <g> <path class="st16" d="M385.7,91.4c-3.7,0-7.1-0.7-10-1.9c-2.9-1.3-5.4-3-7.2-5.3c-0.4-0.5-0.3-1.1,0.1-1.5l6.5-5.5 c0.2-0.2,0.5-0.3,0.7-0.3c0.3,0,0.6,0.1,0.8,0.4c1.3,1.5,2.9,2.6,4.5,3.2c1.7,0.7,3.5,1,5.2,1h0c0.6,0,1.2-0.1,1.7-0.2 c0.5-0.1,0.9-0.3,1.2-0.6c0.3-0.2,0.5-0.5,0.6-0.8c0.2-0.3,0.2-0.7,0.2-1c0-0.7-0.2-1.2-0.8-1.6c-0.4-0.3-1.1-0.6-2-0.9 c-1-0.4-2.3-0.8-3.9-1.2c-2.5-0.7-4.7-1.4-6.5-2.3c-1.8-0.9-3.3-2-4.4-3.1c0,0,0,0,0,0c-0.9-1.1-1.7-2.3-2.2-3.6 c-0.5-1.3-0.8-2.8-0.8-4.4c0-1.9,0.4-3.7,1.3-5.3c0.9-1.6,2.1-2.9,3.6-4c1.5-1.1,3.2-1.9,5.1-2.5c1.9-0.6,3.9-0.9,6-0.9l0.1,0 c2.1,0,4.1,0.3,6.1,0.8c2,0.5,3.8,1.3,5.5,2.2c1.7,1,3.2,2.1,4.5,3.4c0.4,0.4,0.4,1.1,0,1.5l-5.6,6.1c-0.2,0.2-0.5,0.3-0.8,0.4 c0,0,0,0,0,0c-0.3,0-0.5-0.1-0.8-0.3c-0.8-0.8-1.8-1.5-2.8-2.1c-1-0.6-2.1-1.1-3.2-1.5c-1.1-0.4-2-0.5-2.8-0.5h0 c-0.7,0-1.4,0.1-2,0.2c-0.5,0.1-0.9,0.3-1.2,0.5c-0.3,0.2-0.5,0.5-0.7,0.7c-0.1,0.3-0.2,0.6-0.2,1c0,0.4,0.1,0.7,0.3,1 c0.2,0.3,0.4,0.6,0.8,0.8c0.5,0.3,1.2,0.6,2.2,0.9c1,0.4,2.4,0.8,4.2,1.3c2.4,0.7,4.5,1.4,6.1,2.2c1.7,0.8,3.2,1.8,4.2,2.9 c0.9,1,1.6,2.1,2.1,3.4c0.4,1.2,0.6,2.6,0.6,4.1c0,2.6-0.8,5-2.2,7c-1.5,2-3.5,3.6-6,4.7C391.6,90.8,388.8,91.4,385.7,91.4 L385.7,91.4z"></path> <path class="st1" d="M385.6,50.1C385.6,50.1,385.6,50.1,385.6,50.1c2.1,0,4,0.3,5.9,0.7c1.9,0.5,3.7,1.2,5.3,2.1 c1.6,0.9,3.1,2,4.3,3.2l-5.6,6.1c-0.9-0.8-1.9-1.6-3-2.3c-1.1-0.7-2.2-1.2-3.4-1.6c-1.2-0.4-2.2-0.6-3.1-0.6c0,0,0,0,0,0 c-0.8,0-1.5,0.1-2.2,0.2c-0.7,0.1-1.2,0.4-1.6,0.7c-0.4,0.3-0.8,0.7-1,1.1c-0.2,0.4-0.3,0.9-0.3,1.5c0,0.5,0.1,1,0.4,1.5 c0.3,0.5,0.6,0.9,1.1,1.2c0.5,0.3,1.3,0.6,2.4,1c1,0.4,2.5,0.8,4.3,1.3c2.3,0.6,4.3,1.4,5.9,2.1c1.6,0.8,2.9,1.7,3.9,2.7 c0.8,0.9,1.4,1.9,1.8,3c0.4,1.1,0.6,2.4,0.6,3.7c0,2.4-0.7,4.5-2,6.4c-1.3,1.8-3.2,3.3-5.5,4.4c-2.3,1.1-4.9,1.6-7.8,1.6 c0,0,0,0-0.1,0c-3.6,0-6.8-0.6-9.6-1.8c-2.8-1.2-5-2.9-6.7-5l6.5-5.5c1.5,1.6,3.1,2.8,5,3.5c1.8,0.7,3.7,1.1,5.5,1.1c0,0,0,0,0,0 c0.7,0,1.4-0.1,2-0.2c0.6-0.2,1.1-0.4,1.6-0.7c0.4-0.3,0.8-0.7,1-1.2c0.2-0.5,0.3-1,0.3-1.5c0-1.1-0.4-1.9-1.3-2.5 c-0.5-0.3-1.2-0.6-2.3-1c-1-0.4-2.3-0.8-3.9-1.2c-2.5-0.6-4.6-1.4-6.3-2.2c-1.7-0.9-3.1-1.8-4.1-2.9c-0.9-1-1.5-2.1-2-3.3 c-0.5-1.2-0.7-2.5-0.7-4c0-1.8,0.4-3.3,1.2-4.8c0.8-1.4,1.9-2.7,3.3-3.7c1.4-1,3-1.8,4.8-2.4C381.7,50.4,383.6,50.1,385.6,50.1 M385.6,47.9c-2.2,0-4.3,0.3-6.3,0.9c-2,0.6-3.9,1.5-5.4,2.7c-1.6,1.2-3,2.7-3.9,4.4c-1,1.7-1.4,3.7-1.5,5.8 c0,1.7,0.3,3.3,0.8,4.8c0.5,1.4,1.3,2.8,2.4,4c0,0,0.1,0.1,0.1,0.1c1.2,1.3,2.8,2.4,4.7,3.4c1.8,0.9,4.1,1.7,6.7,2.4 c1.5,0.4,2.8,0.8,3.8,1.2c1.1,0.4,1.6,0.6,1.8,0.8c0.2,0.1,0.3,0.3,0.3,0.6c0,0.2,0,0.4-0.1,0.6c-0.1,0.1-0.2,0.2-0.3,0.3 c-0.2,0.2-0.5,0.3-0.9,0.4c-0.4,0.1-0.9,0.2-1.4,0.2l0,0c-1.6,0-3.2-0.3-4.8-0.9c-1.5-0.6-2.9-1.6-4.1-2.9c-0.4-0.5-1-0.7-1.6-0.7 c-0.5,0-1,0.2-1.4,0.5l-6.5,5.5c-0.9,0.8-1,2.1-0.3,3c1.9,2.4,4.5,4.2,7.6,5.6c3.1,1.3,6.6,2,10.5,2l0.1,0c3.2,0,6.1-0.6,8.7-1.8 c2.7-1.2,4.8-2.9,6.4-5.1c1.6-2.2,2.4-4.8,2.4-7.6c0-1.6-0.2-3.1-0.7-4.4c-0.5-1.4-1.3-2.7-2.3-3.8c0,0,0,0,0,0 c-1.1-1.2-2.7-2.3-4.5-3.2c-1.7-0.8-3.9-1.6-6.3-2.3c-1.7-0.5-3.1-0.9-4.1-1.3c-1-0.4-1.6-0.7-2-0.8c-0.2-0.1-0.3-0.3-0.4-0.4 c-0.1-0.2-0.1-0.3-0.1-0.5c0-0.2,0-0.4,0.1-0.5c0.1-0.1,0.2-0.2,0.3-0.3c0.2-0.1,0.5-0.3,0.8-0.3c0.5-0.1,1.1-0.2,1.7-0.2l0,0 c0.7,0,1.5,0.2,2.4,0.5c1,0.3,2,0.8,2.9,1.4c1,0.6,1.8,1.3,2.6,2c0.4,0.4,0.9,0.6,1.5,0.6c0,0,0.1,0,0.1,0c0.6,0,1.1-0.3,1.5-0.7 l5.6-6.1c0.8-0.9,0.8-2.2-0.1-3c-1.4-1.4-3-2.6-4.8-3.6c-1.8-1-3.7-1.8-5.8-2.3C390,48.2,387.8,48,385.6,47.9L385.6,47.9 L385.6,47.9z"></path> </g> <g> <g> <path class="st16" d="M340.5,91.3c-0.2,0-0.4,0-0.6,0c-0.1,0-0.1,0-0.2,0c0,0-0.1,0-0.1,0c-5.7,0-11.1-2.3-15.1-6.4 c-4-4.1-6.2-9.4-6.2-15.2c0-5.7,2.3-11.1,6.3-15.1c4-4,9.4-6.3,15.1-6.3l0.1,0c4.1,0,8,1.2,11.5,3.4l0-16.3 c0-0.6,0.5-1.1,1.1-1.1c0,0,10.5,0,10.5,0c0.3,0,0.6,0.1,0.8,0.3c0.2,0.2,0.3,0.5,0.3,0.8l-0.2,54.1c0,0.3-0.1,0.6-0.3,0.8 c-0.2,0.2-0.5,0.3-0.8,0.3c0,0-9.9,0-9.9,0c-0.6,0-1.1-0.5-1.1-1l-0.1-1.9c-0.6,0.4-1.2,0.7-1.8,1.1c-1.2,0.7-2.5,1.3-3.9,1.8 C344.3,91,342.4,91.3,340.5,91.3L340.5,91.3z"></path> <path class="st1" d="M352.4,35.4l10.4,0l-0.2,54.1l-9.9,0l-0.2-3.9c-1,0.8-2.1,1.6-3.3,2.2c-1.1,0.7-2.3,1.3-3.7,1.7 c-1.6,0.5-3.3,0.8-5.1,0.8c0,0,0,0-0.1,0c-0.3,0-0.5,0-0.8,0c0,0-0.1,0-0.1,0c-11.2-0.1-20.2-9.2-20.2-20.4 c0-11.2,9.1-20.3,20.4-20.3c0,0,0,0,0.1,0c4.7,0,9.1,1.6,12.5,4.4L352.4,35.4 M352.4,33.2c-1.2,0-2.2,1-2.2,2.2l0,14.4 c-0.9-0.5-1.9-0.9-2.9-1.3c-2.4-0.9-4.9-1.3-7.5-1.3l-0.1,0c0,0,0,0,0,0c-3,0-6,0.6-8.8,1.8c-2.7,1.1-5.1,2.8-7.2,4.8 c-2.1,2.1-3.7,4.5-4.8,7.1c-1.2,2.8-1.8,5.7-1.8,8.8c0,3,0.6,6,1.7,8.8c1.1,2.7,2.7,5.1,4.8,7.2c2.1,2.1,4.4,3.7,7.1,4.9 c2.8,1.2,5.7,1.8,8.7,1.8l0,0c0,0,0,0,0.1,0c0.1,0,0.1,0,0.2,0c0.2,0,0.4,0,0.7,0l0.1,0c2,0,3.9-0.3,5.7-0.9 c1.5-0.5,2.9-1.1,4.1-1.9c0.1,0,0.1-0.1,0.2-0.1l0,0.1c0.1,1.2,1,2.1,2.2,2.1l9.9,0c0,0,0,0,0,0c1.2,0,2.2-1,2.2-2.2l0.2-54.1 c0-1.2-1-2.2-2.2-2.2L352.4,33.2C352.4,33.2,352.4,33.2,352.4,33.2L352.4,33.2z"></path> </g> </g> <g> <g class="st20"> <g> <g> <g> <path class="st1" d="M352.4,35.4l10.4,0l-0.2,54.1l-9.9,0l-0.2-3.9c-1,0.8-2.1,1.6-3.3,2.2c-1.1,0.7-2.3,1.3-3.7,1.7 c-1.6,0.5-3.3,0.8-5.1,0.8c0,0,0,0-0.1,0c-0.3,0-0.5,0-0.8,0c0,0-0.1,0-0.1,0c-11.2-0.1-20.2-9.2-20.2-20.4 c0-11.2,9.1-20.3,20.4-20.3c0,0,0,0,0.1,0c4.7,0,9.1,1.6,12.5,4.4L352.4,35.4 M352.4,33.2c-0.6,0-1.1,0.2-1.5,0.6 c-0.4,0.4-0.6,1-0.6,1.5l0,14.4c-0.9-0.5-1.9-0.9-2.9-1.3c-2.4-0.9-4.9-1.3-7.5-1.3l-0.1,0c0,0,0,0,0,0c-3,0-6,0.6-8.8,1.8 c-2.7,1.1-5.1,2.8-7.2,4.8c-2.1,2.1-3.7,4.5-4.8,7.1c-1.2,2.8-1.8,5.7-1.8,8.8c0,3,0.6,6,1.7,8.8c1.1,2.7,2.7,5.1,4.8,7.2 c2.1,2.1,4.4,3.7,7.1,4.9c2.8,1.2,5.7,1.8,8.7,1.8l0,0c0,0,0,0,0.1,0c0.1,0,0.1,0,0.2,0c0.2,0,0.4,0,0.7,0l0.1,0 c2,0,3.9-0.3,5.7-0.9c1.5-0.5,2.9-1.1,4.1-1.9c0.1,0,0.1-0.1,0.2-0.1l0,0.1c0.1,1.2,1,2.1,2.2,2.1l9.9,0c0,0,0,0,0,0 c0.6,0,1.1-0.2,1.5-0.6c0.4-0.4,0.6-1,0.6-1.5l0.2-54.1c0-1.2-1-2.2-2.2-2.2L352.4,33.2C352.4,33.2,352.4,33.2,352.4,33.2 L352.4,33.2z"></path> </g> </g> </g> </g> <g> <path class="st16" d="M303.9,90.4c-0.6,0-1.1-0.5-1.1-1.1l0.1-38.6c0-0.6,0.5-1.1,1.1-1.1c0,0,10.4,0,10.4,0 c0.3,0,0.6,0.1,0.8,0.3c0.2,0.2,0.3,0.5,0.3,0.8l-0.1,38.6c0,0.3-0.1,0.6-0.3,0.8c-0.2,0.2-0.5,0.3-0.8,0.3 C314.3,90.5,303.9,90.4,303.9,90.4z M309.1,49.1c-2.3,0-4.1-0.6-5.4-1.8c-1.4-1.2-2-2.9-2-5c0-2,0.7-3.6,2.1-4.9 c1.3-1.2,3.1-1.8,5.3-1.8l0,0c2.3,0,4.1,0.6,5.4,1.8c1.4,1.2,2,2.9,2,4.9c0,2-0.7,3.6-2.1,4.9C313.2,48.4,311.4,49.1,309.1,49.1 L309.1,49.1z"></path> <path class="st1" d="M309.1,36.6C309.2,36.6,309.2,36.6,309.1,36.6c2,0,3.6,0.5,4.7,1.5c1.1,1,1.7,2.4,1.7,4.1 c0,1.7-0.6,3-1.7,4.1c-1.1,1.1-2.7,1.6-4.6,1.6c0,0,0,0,0,0c-2,0-3.6-0.5-4.7-1.5c-1.1-1-1.7-2.4-1.7-4.2c0-1.7,0.6-3,1.7-4 C305.7,37.2,307.2,36.6,309.1,36.6 M304,50.7l10.4,0l-0.1,38.6l-10.4,0L304,50.7 M309.1,34.5L309.1,34.5c-2.5,0-4.5,0.7-6.1,2.1 c-0.8,0.7-1.4,1.6-1.8,2.6c-0.4,0.9-0.6,2-0.6,3.1c0,1.2,0.2,2.3,0.6,3.2c0.4,1,1,1.9,1.8,2.6c0.2,0.2,0.4,0.3,0.6,0.5 c-1,0.2-1.7,1.1-1.7,2.1l-0.1,38.6c0,1.2,1,2.2,2.2,2.2l10.4,0c0,0,0,0,0,0c0.6,0,1.1-0.2,1.5-0.6c0.4-0.4,0.6-1,0.6-1.5 l0.1-38.6c0-0.6-0.2-1.1-0.6-1.5c-0.4-0.4-0.8-0.6-1.4-0.6c0.2-0.2,0.5-0.4,0.7-0.6c0.8-0.7,1.4-1.6,1.8-2.6 c0.4-0.9,0.6-2,0.6-3.1c0-1.2-0.2-2.2-0.6-3.2c-0.4-1-1-1.9-1.8-2.6C313.8,35.2,311.7,34.5,309.1,34.5L309.1,34.5L309.1,34.5z"></path> </g> </g> <g> <g> <defs> <path id="SVGID_1_" d="M303.9,89.3l0.1-38.6l10.4,0l-0.1,38.6L303.9,89.3z"></path> </defs> <clipPath id="SVGID_00000016070711915342638680000012261021706391034247_"> <use xlink:href="#SVGID_1_" style="overflow:visible;"></use> </clipPath> <g style="clip-path:url(#SVGID_00000016070711915342638680000012261021706391034247_);"> <path class="st1" d="M309.2,39.3c-1.3,0-2.2,0.3-2.8,0.9c-0.6,0.5-0.9,1.2-0.9,2.1c0,1.4,0.4,1.9,0.8,2.2 c0.6,0.5,1.6,0.8,2.9,0.8c1.3,0,2.2-0.3,2.8-0.9c0.6-0.6,0.9-1.2,0.9-2.1c0-1.3-0.4-1.8-0.8-2.1 C311.5,39.6,310.5,39.3,309.2,39.3z"></path> </g> </g> </g> <g> <path class="st1" d="M340.8,56.7c-0.3,0-0.5,0-0.7,0.2l-3.1,2.3c-0.4,0.3-0.5,1-0.2,1.4l2.4,3.2c0.3,0.4,1,0.5,1.4,0.2 c0.4-0.3,0.5-1,0.2-1.4l-0.3-0.4c3.8,0.7,6.6,4.1,6.6,8.1c0,4.5-3.7,8.2-8.2,8.2c-4.5,0-8.2-3.7-8.2-8.2c0-2.9,1.6-5.6,4.1-7.1 c0.8-0.5,1.1-1.5,0.6-2.4c-0.5-0.8-1.5-1.1-2.4-0.6c-3.5,2.1-5.8,5.9-5.8,10c0,6.4,5.2,11.7,11.6,11.7c6.4,0,11.7-5.2,11.7-11.6 c0-5.8-4.2-10.6-9.7-11.5l0.3-0.3c0.4-0.3,0.5-1,0.2-1.4C341.3,56.9,341.1,56.8,340.8,56.7z"></path> </g> <g> <g> <polygon class="st22" points="107.2,90.8 107.4,34.7 146,34.8 146,47.2 120.9,47.1 120.9,56.2 142.3,56.3 142.2,68.3 120.8,68.3 120.8,78.5 146.4,78.5 146.4,90.9 "></polygon> <path class="st1" d="M108.5,35.8l36.4,0.1l0,10.2L119.8,46l0,11.3l21.4,0.1l0,9.9l-21.4-0.1l0,12.4l25.6,0.1l0,10.2l-37-0.1 L108.5,35.8 M106.3,33.6l0,2.2l-0.2,53.9l0,2.2l2.2,0l37,0.1l2.2,0l0-2.2l0-10.2l0-2.2l-2.2,0l-23.5-0.1l0-8l19.2,0.1l2.2,0 l0-2.2l0-9.9l0-2.2l-2.2,0L122,55.1l0-7l22.9,0.1l2.2,0l0-2.2l0-10.2l0-2.2l-2.2,0l-36.4-0.1L106.3,33.6L106.3,33.6z"></path> </g> </g> <g> <g> <path class="st22" d="M40.4,74.9c-2.9,0-5.6-0.5-8-1.5c-2.4-1-4.5-2.4-6.3-4.2c-1.8-1.8-3.2-4-4.2-6.5c-1-2.5-1.4-5.2-1.4-8 c0-2.9,0.5-5.6,1.5-8.1c1-2.5,2.4-4.6,4.2-6.4c1.8-1.8,4-3.2,6.4-4.2c2.4-1,5-1.5,7.9-1.5l0.1,0c2.9,0,5.6,0.5,8,1.5 c2.4,1,4.5,2.4,6.3,4.3c1.8,1.8,3.2,4,4.2,6.5c1,2.4,1.4,5.1,1.4,8c0,2.9-0.5,5.6-1.5,8c-1,2.5-2.4,4.6-4.2,6.4 c-1.8,1.8-3.9,3.2-6.3,4.2C45.9,74.4,43.3,74.9,40.4,74.9L40.4,74.9z"></path> <path class="st1" d="M40.4,35.6C40.4,35.6,40.4,35.6,40.4,35.6c2.8,0,5.3,0.5,7.6,1.5c2.3,1,4.3,2.3,6,4c1.7,1.7,3,3.8,3.9,6.1 c0.9,2.3,1.4,4.9,1.4,7.6c0,2.7-0.5,5.3-1.4,7.6c-0.9,2.3-2.2,4.3-4,6.1c-1.7,1.7-3.7,3.1-6,4c-2.3,0.9-4.7,1.4-7.4,1.4 c0,0,0,0-0.1,0c-2.7,0-5.3-0.5-7.6-1.5c-2.3-1-4.3-2.3-6-4c-1.7-1.7-3-3.7-3.9-6.1c-0.9-2.3-1.4-4.9-1.4-7.6 c0-2.8,0.5-5.3,1.4-7.7c0.9-2.3,2.2-4.3,4-6c1.7-1.7,3.7-3,6-4C35.2,36,37.7,35.6,40.4,35.6 M40.4,33.4L40.4,33.4 c-3,0-5.8,0.5-8.3,1.6c-2.5,1-4.8,2.5-6.7,4.4c-1.9,1.9-3.4,4.2-4.4,6.8c-1,2.6-1.5,5.4-1.6,8.5c0,3,0.5,5.9,1.5,8.4 c1,2.6,2.5,4.9,4.4,6.8c1.9,1.9,4.2,3.4,6.7,4.5c2.5,1.1,5.4,1.6,8.4,1.6l0.1,0c3,0,5.7-0.5,8.3-1.6c2.5-1.1,4.8-2.6,6.7-4.5 c1.9-1.9,3.4-4.2,4.4-6.8c1-2.6,1.5-5.4,1.6-8.4c0-3-0.5-5.8-1.5-8.4c-1-2.6-2.5-4.9-4.4-6.8c-1.9-1.9-4.1-3.5-6.7-4.5 C46.3,33.9,43.5,33.4,40.4,33.4L40.4,33.4L40.4,33.4z"></path> </g> </g> <g> <g> <path class="st22" d="M76.6,90.7c-0.3,0-0.6-0.1-0.8-0.3c-0.2-0.2-0.3-0.5-0.3-0.8l0.1-42.4l-14.6,0c-0.3,0-0.6-0.1-0.8-0.3 s-0.3-0.5-0.3-0.8l0-10.4c0-0.6,0.5-1.1,1.1-1.1c0,0,43.4,0.1,43.4,0.1c0.6,0,1.1,0.5,1.1,1.1l0,10.4c0,0.3-0.1,0.6-0.3,0.8 c-0.2,0.2-0.5,0.3-0.8,0.3c0,0-15.1,0-15.1,0l-0.1,42.4c0,0.6-0.5,1.1-1.1,1.1C88.2,90.7,76.6,90.7,76.6,90.7z"></path> <path class="st1" d="M61.1,35.6l43.4,0.1l0,10.4l-16.2,0l-0.1,43.5l-11.6,0l0.1-43.5L61,46L61.1,35.6 M61.1,33.4 c-0.6,0-1.1,0.2-1.5,0.6c-0.4,0.4-0.6,1-0.6,1.5l0,10.4c0,1.2,1,2.2,2.2,2.2l13.5,0l-0.1,41.3c0,0.6,0.2,1.1,0.6,1.5 c0.4,0.4,1,0.6,1.5,0.6l11.6,0c0,0,0,0,0,0c1.2,0,2.2-1,2.2-2.2l0.1-41.3l14,0c0,0,0,0,0,0c0.6,0,1.1-0.2,1.5-0.6 c0.4-0.4,0.6-1,0.6-1.5l0-10.4c0-1.2-1-2.2-2.2-2.2L61.1,33.4C61.1,33.4,61.1,33.4,61.1,33.4L61.1,33.4z"></path> </g> </g> <g> <g> <polygon class="st22" points="4.5,90.5 4.6,34.4 18.4,34.4 18.2,77.7 59.2,77.8 59.1,90.6 "></polygon> <path class="st1" d="M5.7,35.5l11.6,0l-0.1,43.3l40.9,0.1l0,10.6l-16.5-0.1l-31.2-0.1l-4.8,0L5.7,35.5 M3.5,33.3l0,2.2L3.4,89.4 l0,2.2l2.2,0l4.8,0l31.2,0.1l16.5,0.1l2.2,0l0-2.2l0-10.6l0-2.2l-2.2,0l-38.8-0.1l0.1-41.1l0-2.2l-2.2,0l-11.6,0L3.5,33.3 L3.5,33.3z"></path> </g> </g> <g> <path class="st23" d="M33.3,44.2c-0.1,6.3-0.1,15.8-0.1,21.2c0,1.4,1.3,0.7,1.3,0.7s13.3-7.9,18-10.6c1.1-0.7,0-1.3,0-1.3L35,43.5 C35,43.5,33.3,42.6,33.3,44.2z"></path> <path class="st23" d="M33.3,44.2c-0.1,6.3-0.1,15.8-0.1,21.2c0,1.4,1.3,0.7,1.3,0.7s13.3-7.9,18-10.6c1.1-0.7,0-1.3,0-1.3L35,43.5 C35,43.5,33.3,42.6,33.3,44.2z"></path> <path class="st23" d="M33.3,44.2c-0.1,6.3-0.1,15.8-0.1,21.2c0,1.4,1.3,0.7,1.3,0.7s13.3-7.9,18-10.6c1.1-0.7,0-1.3,0-1.3L35,43.5 C35,43.5,33.3,42.6,33.3,44.2z"></path> <path class="st23" d="M33.3,44.2c-0.1,6.3-0.1,15.8-0.1,21.2c0,1.4,1.3,0.7,1.3,0.7s13.3-7.9,18-10.6c1.1-0.7,0-1.3,0-1.3L35,43.5 C35,43.5,33.3,42.6,33.3,44.2z"></path> <path class="st23" d="M33.3,44.2c-0.1,6.3-0.1,15.8-0.1,21.2c0,1.4,1.3,0.7,1.3,0.7s13.3-7.9,18-10.6c1.1-0.7,0-1.3,0-1.3L35,43.5 C35,43.5,33.3,42.6,33.3,44.2z"></path> <path class="st23" d="M33.3,44.2c-0.1,6.3-0.1,15.8-0.1,21.2c0,1.4,1.3,0.7,1.3,0.7s13.3-7.9,18-10.6c1.1-0.7,0-1.3,0-1.3L35,43.5 C35,43.5,33.3,42.6,33.3,44.2z"></path> <path class="st23" d="M33.3,44.2c-0.1,6.3-0.1,15.8-0.1,21.2c0,1.4,1.3,0.7,1.3,0.7s13.3-7.9,18-10.6c1.1-0.7,0-1.3,0-1.3L35,43.5 C35,43.5,33.3,42.6,33.3,44.2z"></path> <path class="st1" d="M33.3,44.2c-0.1,6.3-0.1,15.8-0.1,21.2c0,1.4,1.3,0.7,1.3,0.7s13.3-7.9,18-10.6c1.1-0.7,0-1.3,0-1.3L35,43.5 C35,43.5,33.3,42.6,33.3,44.2z"></path> </g> <g> <g> <path class="st16" d="M287.6,90.4c-0.3,0-0.7-0.2-0.9-0.4l-16.3-21.8l-3.9,3.7l-0.1,17.3c0,0.3-0.1,0.6-0.3,0.8 c-0.2,0.2-0.5,0.3-0.8,0.3c0,0-11,0-11,0c-0.6,0-1.1-0.5-1.1-1.1l0-10.5l-5.1,0l0,10.5c0,0.3-0.1,0.6-0.3,0.8 c-0.2,0.2-0.5,0.3-0.8,0.3c0,0-10.6,0-10.6,0c-0.3,0-0.6-0.1-0.8-0.3c-0.2-0.2-0.3-0.5-0.3-0.8l0-10.5l-18.3-0.1 c-0.4,0-0.8-0.2-1-0.6l-4.5-8.6c-0.2-0.4-0.2-0.9,0.1-1.2L237.7,37c0.2-0.2,0.5-0.4,0.8-0.4c0,0,8.8,0,8.8,0 c0.6,0,1.1,0.5,1.1,1.1l-0.1,29.5l5.1,0l0.1-29.2c0-0.3,0.1-0.6,0.3-0.8c0.2-0.2,0.5-0.3,0.8-0.3c0,0,11,0,11,0 c0.6,0,1.1,0.5,1.1,1.1l-0.1,18.3l19-19.1c0.2-0.2,0.5-0.3,0.8-0.3c0,0,13.3,0,13.3,0c0.4,0,0.8,0.3,1,0.7 c0.2,0.4,0.1,0.9-0.3,1.2l-21.2,20.6l22.3,29.1c0.3,0.3,0.3,0.8,0.1,1.1c-0.2,0.4-0.6,0.6-1,0.6 C300.6,90.4,287.6,90.4,287.6,90.4z M235.5,67.2l0-9.8l-8.1,9.8L235.5,67.2z"></path> <path class="st1" d="M238.6,37.7l8.8,0l-0.1,30.6l7.3,0l0.1-30.3l11,0l-0.1,21l20.9-20.9l13.3,0l-21.9,21.3l22.9,29.8l-13,0 l-17.1-22.8l-5.1,4.9l-0.1,17.8l-11,0l0-11.6l-7.3,0l0,11.6l-10.6,0l0-11.6l-19.4-0.1l-4.5-8.6L238.6,37.7 M236.6,68.3l0-14 l-11.5,13.9L236.6,68.3 M238.6,35.5c-0.6,0-1.3,0.3-1.7,0.8L211,67.4c-0.6,0.7-0.7,1.6-0.3,2.4l4.5,8.6c0.4,0.7,1.1,1.2,1.9,1.2 l17.3,0.1l0,9.4c0,1.2,1,2.2,2.2,2.2l10.6,0c0,0,0,0,0,0c0.6,0,1.1-0.2,1.5-0.6c0.4-0.4,0.6-1,0.6-1.5l0-9.4l2.9,0l0,9.4 c0,1.2,1,2.2,2.2,2.2l11,0c0,0,0,0,0,0c0.6,0,1.1-0.2,1.5-0.6c0.4-0.4,0.6-1,0.6-1.5l0.1-16.8l2.6-2.6l15.6,20.8 c0.4,0.5,1.1,0.9,1.7,0.9l13,0c0,0,0,0,0,0c0.8,0,1.6-0.5,2-1.2c0.4-0.7,0.3-1.6-0.2-2.3l-21.7-28.3l20.5-20 c0.6-0.6,0.8-1.6,0.5-2.4c-0.3-0.8-1.1-1.4-2-1.4l-13.3,0c0,0,0,0,0,0c-0.6,0-1.1,0.2-1.5,0.6l-17.1,17.2l0-15.7 c0-0.6-0.2-1.1-0.6-1.5c-0.4-0.4-1-0.6-1.5-0.6l-11,0c0,0,0,0,0,0c-1.2,0-2.2,1-2.2,2.2l-0.1,28.1l-2.9,0l0.1-28.4 c0-0.6-0.2-1.1-0.6-1.5c-0.4-0.4-1-0.6-1.5-0.6L238.6,35.5C238.6,35.5,238.6,35.5,238.6,35.5L238.6,35.5z M229.8,66.1l4.7-5.7 l0,5.7L229.8,66.1L229.8,66.1z"></path> </g> </g> </g> </svg> 